<?xml version="1.0" encoding="utf-8"?>
<!-- Generator: Adobe Illustrator 24.1.0, SVG Export Plug-In . SVG Version: 6.00 Build 0)  -->
<!DOCTYPE svg PUBLIC "-//W3C//DTD SVG 1.1//EN" "http://www.w3.org/Graphics/SVG/1.1/DTD/svg11.dtd" [
	<!ENTITY ns_extend "http://ns.adobe.com/Extensibility/1.0/">
	<!ENTITY ns_ai "http://ns.adobe.com/AdobeIllustrator/10.0/">
	<!ENTITY ns_graphs "http://ns.adobe.com/Graphs/1.0/">
	<!ENTITY ns_vars "http://ns.adobe.com/Variables/1.0/">
	<!ENTITY ns_imrep "http://ns.adobe.com/ImageReplacement/1.0/">
	<!ENTITY ns_sfw "http://ns.adobe.com/SaveForWeb/1.0/">
	<!ENTITY ns_custom "http://ns.adobe.com/GenericCustomNamespace/1.0/">
	<!ENTITY ns_adobe_xpath "http://ns.adobe.com/XPath/1.0/">
]>
<svg version="1.1" id="Layer_1" xmlns:x="&ns_extend;" xmlns:i="&ns_ai;" xmlns:graph="&ns_graphs;"
	 xmlns="http://www.w3.org/2000/svg" xmlns:xlink="http://www.w3.org/1999/xlink" x="0px" y="0px" viewBox="0 0 550 100"
	 style="enable-background:new 0 0 550 100;" xml:space="preserve">
<metadata>
	<sfw  xmlns="&ns_sfw;">
		<slices></slices>
		<sliceSourceBounds  bottomLeftOrigin="true" height="68.9" width="525" x="11.1" y="14.7"></sliceSourceBounds>
	</sfw>
</metadata>
<g>
	<path style="fill:#FFFFFF;" d="M43.8,21c17.8,0,24.6,10.4,24.8,25.3c0.2,22-12,38.8-33.7,38.5c-1-0.1-3-0.2-4-0.3
		c-1.8-0.2-6-0.3-8.4-0.3H11.1l0.3-3.4l6.3-1l6.9-53.3l-5.7-0.9l0.4-3.7h11.6C35,21.6,39.4,21,43.8,21z M36.2,80.4
		c16-0.6,22.8-17.6,22.7-33.3c-0.2-15.5-5-21.8-16.7-21.8c-3,0-6.5,0.5-8.5,0.8l-6.8,53.1C29.6,79.9,33.9,80.4,36.2,80.4z"/>
	<path style="fill:#FFFFFF;" d="M87,79.6c1.2,0,2.4-0.6,4.3-2.4l1.1,2.2c-0.8,1.2-4.5,5.6-10,5.6c-3.8,0-6.1-1.8-5.8-5.3
		c0.6-5.7,3.3-22.7,5-36.3l-5.2-2l0.6-2.9l12.4-1.9l1.9,0.9l-5.6,39.2C85.5,78.7,86.1,79.6,87,79.6z M83.3,22.5
		c0.2-3.4,2.9-6.1,6-6.1c3.1,0,4.8,2.2,4.8,4.8c-0.1,3.5-2.4,6.4-6.1,6.4C85.4,27.6,83.2,25.3,83.3,22.5z"/>
	<path style="fill:#FFFFFF;" d="M132.7,36.4c6,0,9.9,3.1,9.9,12.2c0,3.5-1.3,10.2-2.1,14.8c-0.8,4.2-1.9,9.7-2,13.5
		c-0.1,1.9,0.3,2.7,1.1,2.7c1.1,0,2.3-0.5,3.9-2l1.1,2.3c-0.7,1-4.5,5.1-9.8,5.1c-4.3,0-5.7-2.2-5.6-5.5c0.1-3.4,1.3-9.2,2.2-13.8
		c0.8-4.7,2.2-11.3,2.2-16.2c-0.1-5.3-1.4-6.7-5-6.7c-4.4,0-10.3,5.1-14,11.2l-4,30.2h-8.7l5.4-40.5l-4.2-2.1l0.7-3.2l10.9-1.9
		l1.8,0.9l-1,9.9C119.7,41.2,126.1,36.4,132.7,36.4z"/>
	<path style="fill:#FFFFFF;" d="M169.4,85c-12.3,0-17-9.5-16.8-18.7c0.2-16.2,10.8-29.9,24.9-29.9c8.4,0,12.1,4.5,12.2,10.2
		c0.2,13.2-18.6,18.3-27.6,18.5c-0.4,7.1,2.1,14.4,9.3,14.4c5.2,0,10.1-2.7,13.9-6.7l1.9,3.3C184.9,79.5,178.2,85,169.4,85z
		 M162.2,61c7.6-0.3,18.8-5,18.7-13.6c-0.1-4.3-2.1-6.5-5.5-6.5C167.3,40.9,162.9,52.6,162.2,61z"/>
	<path style="fill:#FFFFFF;" d="M246,21.7l-1.6,15.6h-9l-1.1-9.7l-14.9-0.9l-3,22.3l19.7-1.1l-1.3,9.1l-19.2-1.5l-2.9,23.3l11.3,1.2
		l-0.3,4.3h-31.2l0.4-4.3l5.7-1.2l6.7-51.5l-6-0.9l0.6-4.5L246,21.7L246,21.7z"/>
	<path style="fill:#FFFFFF;" d="M290.7,55.1c0.5,16.5-9.8,30.2-26.4,30.2c-11.9,0-18.1-6.7-18.6-19c-0.5-16.5,9.8-30,26.3-30
		C283.9,36.3,290.3,42.9,290.7,55.1z M260.2,66.5c0.3,9.7,2,13.5,6,13.5c7.6,0,10.1-14,9.7-25c-0.3-9.7-2-12.9-5.5-12.9
		C262.8,42,259.9,55.8,260.2,66.5z"/>
	<path style="fill:#FFFFFF;" d="M327.3,36.4c1.4,0,2.4,0.5,2.9,0.8l-2.8,14.4c-0.3-0.4-1.9-1.4-4.6-1.4c-3.3,0-6.6,0.7-8.2,2.1
		l-4.4,31.8h-12.9l5.3-39.6l-4.4-2.4l0.7-3.6l13.4-2.2l2.2,1.4l-0.4,7.7l-0.2,3C315.7,42.2,320.6,36.4,327.3,36.4z"/>
	<path style="fill:#FFFFFF;" d="M331.9,43.7c-1,0-1.4,0.3-2.1,0.6l-1.3-3.1c0.8-1,5.3-4.8,10.7-4.8c5,0,7.1,2,7.7,5.6l3.3,24.3
		l1,8.7l3.6-11.5l8-26.7h12l4.3,31l0.7,6.9l2-3.4c4.6-7.2,7.1-13.4,7.1-20.2c0-2.8-1.3-5.7-1.3-8.7c0-3.3,2.5-6,6.6-6
		c5.4,0,7.1,4.4,7.2,8.9c0.1,8.3-12,26.1-18.1,33l-5.1,6.1l-9,0.4l-2.4-15.3l-1.3-11.3l-0.6-6.2l-1.7,6.2l-3.4,9.1L353,84.3
		L342.2,85l-3.3-15.4L333.6,46C333.2,44.3,332.7,43.7,331.9,43.7z"/>
	<path style="fill:#FFFFFF;" d="M443.7,78c0.8,0,1.8-0.3,3.7-1.8l1.2,2.9c-0.9,1.5-5,6-11.3,6c-3.9,0-6.6-1.7-6.9-4.9v-0.5
		c-2.7,2.8-6.8,5.4-12.5,5.4c-10.2,0-14.5-7.9-14.5-17.3c0-15.9,9.6-31.2,28.1-31.2c3.2,0,7.2,0.9,9.7,1.8l6.3-1.8l-5.3,38.5
		C441.7,77.1,442.4,78,443.7,78z M430.5,42c-10.1,0-13.2,14.2-13.2,25.1c0,6.7,2.4,10.8,6.1,10.8c2,0,3.9-1.1,5.4-2.5l4.5-33
		C432.4,42.2,431.4,42,430.5,42z"/>
	<path style="fill:#FFFFFF;" d="M484.2,36.4c1.4,0,2.4,0.5,2.9,0.8l-2.8,14.4c-0.3-0.4-1.9-1.4-4.6-1.4c-3.3,0-6.6,0.7-8.2,2.1
		l-4.4,31.8h-12.9l5.3-39.6l-4.4-2.4l0.7-3.6l13.4-2.2l2.2,1.4l-0.4,7.7l-0.2,3C472.7,42.2,477.6,36.4,484.2,36.4z"/>
	<path style="fill:#FFFFFF;" d="M529.3,78c0.8,0,1.8-0.3,3.8-1.8l1.2,2.9c-1,1.2-4.8,6-11.4,6c-4.5,0-6.6-2.2-7.1-6.1l-0.1-0.8
		c-2.3,3.2-6.7,6.9-13.6,6.9c-10.2,0-14.1-7.9-14.1-17.3c0-15.9,8.9-31.2,27.8-31.2c1.3,0,2.9,0.2,4.3,0.4l1.9-13.5l-6.4-1.8
		l0.8-3.4l17.6-1.8l2.2,1.2l-8.2,57.2C527.5,76.8,527.9,78,529.3,78z M514.7,42c-10.1,0-12.9,14.2-12.9,25.1
		c0,6.7,2.2,10.8,5.9,10.8c2.9,0,5.4-2.1,6.9-4.4l4.5-30.7C517.8,42.4,516.3,42,514.7,42z"/>
</g>
</svg>
