<?xml version="1.0" encoding="utf-8"?>
<!-- Generator: Adobe Illustrator 16.0.0, SVG Export Plug-In . SVG Version: 6.00 Build 0)  -->
<!DOCTYPE svg PUBLIC "-//W3C//DTD SVG 1.1//EN" "http://www.w3.org/Graphics/SVG/1.1/DTD/svg11.dtd">
<svg version="1.1" id="Layer_1" xmlns="http://www.w3.org/2000/svg" xmlns:xlink="http://www.w3.org/1999/xlink" x="0px" y="0px"
	 width="550px" height="100px" viewBox="0 0 550 100" enable-background="new 0 0 550 100" xml:space="preserve">
<g>
	<path d="M43.759,21.027c17.808,0,24.612,10.416,24.78,25.284c0.168,22.007-12.012,38.808-33.684,38.472
		c-1.008-0.084-3.024-0.168-4.032-0.336c-1.848-0.168-6.048-0.336-8.4-0.336h-11.34l0.336-3.444l6.3-1.009l6.888-53.339
		l-5.712-0.924l0.42-3.696h11.592C35.023,21.615,39.392,21.027,43.759,21.027z M36.199,80.415
		c16.044-0.589,22.848-17.64,22.68-33.264c-0.168-15.456-4.956-21.756-16.716-21.756c-3.024,0-6.468,0.504-8.484,0.84l-6.804,53.087
		C29.647,79.91,33.932,80.415,36.199,80.415z"/>
	<path d="M87.02,79.574c1.176,0,2.352-0.588,4.284-2.436l1.092,2.184c-0.84,1.177-4.536,5.629-9.996,5.629
		c-3.78,0-6.132-1.764-5.796-5.293c0.588-5.711,3.276-22.68,5.04-36.287l-5.208-2.016l0.588-2.94l12.432-1.932l1.932,0.924
		L85.76,76.635C85.508,78.65,86.096,79.574,87.02,79.574z M83.324,22.539c0.168-3.444,2.856-6.132,6.048-6.132
		c3.108,0,4.788,2.184,4.788,4.788c-0.084,3.528-2.436,6.384-6.132,6.384C85.424,27.579,83.24,25.311,83.324,22.539z"/>
	<path d="M132.715,36.399c5.964,0,9.912,3.108,9.912,12.18c0,3.528-1.344,10.248-2.1,14.784c-0.756,4.199-1.932,9.744-2.016,13.523
		c-0.084,1.932,0.336,2.688,1.092,2.688c1.092,0,2.268-0.504,3.948-2.016l1.092,2.268c-0.672,1.009-4.452,5.125-9.828,5.125
		c-4.284,0-5.712-2.184-5.628-5.545c0.084-3.359,1.344-9.239,2.184-13.775c0.84-4.704,2.184-11.256,2.184-16.212
		c-0.084-5.292-1.428-6.72-4.956-6.72c-4.368,0-10.332,5.124-14.028,11.172l-4.032,30.24h-8.652l5.376-40.488l-4.2-2.1l0.672-3.192
		l10.92-1.932l1.764,0.924l-1.008,9.912C119.695,41.187,126.079,36.399,132.715,36.399z"/>
	<path d="M169.422,85.035c-12.348,0-16.968-9.492-16.8-18.732c0.168-16.212,10.836-29.904,24.864-29.904
		c8.4,0,12.096,4.452,12.18,10.248c0.168,13.188-18.648,18.312-27.552,18.48c-0.42,7.141,2.1,14.363,9.324,14.363
		c5.208,0,10.08-2.688,13.86-6.719l1.932,3.275C184.878,79.49,178.243,85.035,169.422,85.035z M162.199,61.011
		c7.644-0.252,18.816-5.04,18.732-13.608c-0.084-4.284-2.1-6.468-5.46-6.468C167.323,40.935,162.871,52.611,162.199,61.011z"/>
	<path d="M246.03,21.699l-1.596,15.624h-8.988l-1.092-9.744l-14.868-0.924l-3.024,22.26l19.74-1.092l-1.344,9.072l-19.236-1.512
		l-2.94,23.268l11.256,1.176l-0.336,4.285h-31.248l0.42-4.285l5.712-1.176l6.72-51.491l-5.964-0.924l0.588-4.536H246.03z"/>
	<path d="M290.717,55.131c0.504,16.464-9.828,30.156-26.376,30.156c-11.928,0-18.144-6.721-18.648-18.984
		c-0.504-16.548,9.828-29.988,26.292-29.988C283.912,36.315,290.297,42.867,290.717,55.131z M260.224,66.471
		c0.336,9.744,2.017,13.523,6.048,13.523c7.645,0,10.08-14.027,9.744-25.031c-0.251-9.744-2.015-12.936-5.543-12.936
		C262.829,42.027,259.888,55.803,260.224,66.471z"/>
	<path d="M327.256,36.399c1.428,0,2.436,0.504,2.855,0.84l-2.771,14.364c-0.336-0.42-1.932-1.429-4.621-1.429
		c-3.275,0-6.551,0.672-8.23,2.101l-4.369,31.836h-12.936l5.293-39.564l-4.369-2.352l0.672-3.612l13.439-2.184l2.186,1.428
		l-0.42,7.728l-0.168,3.024C315.664,42.195,320.619,36.399,327.256,36.399z"/>
	<path d="M331.875,43.707c-1.008,0-1.428,0.252-2.1,0.588l-1.26-3.108c0.756-1.008,5.291-4.788,10.668-4.788
		c4.955,0,7.139,2.016,7.727,5.628l3.277,24.276l1.008,8.652l3.611-11.508l7.98-26.712h12.012l4.283,30.996l0.674,6.889l2.016-3.36
		c4.619-7.224,7.055-13.356,7.055-20.243c0-2.772-1.344-5.712-1.344-8.653c0-3.276,2.52-5.964,6.637-5.964
		c5.375,0,7.141,4.368,7.225,8.904c0.084,8.316-12.014,26.124-18.061,33.011l-5.125,6.133l-8.986,0.42l-2.438-15.288l-1.26-11.257
		l-0.588-6.215l-1.68,6.215l-3.359,9.072l-6.805,16.885l-10.836,0.672l-3.275-15.372l-5.293-23.604
		C333.219,44.295,332.715,43.707,331.875,43.707z"/>
	<path d="M443.678,77.979c0.756,0,1.848-0.336,3.697-1.848l1.176,2.855c-0.924,1.513-4.957,5.965-11.34,5.965
		c-3.949,0-6.637-1.68-6.889-4.873v-0.504c-2.688,2.773-6.805,5.377-12.516,5.377c-10.248,0-14.533-7.896-14.533-17.305
		c0-15.875,9.576-31.248,28.141-31.248c3.191,0,7.225,0.924,9.66,1.764l6.301-1.764l-5.293,38.472
		C441.746,77.139,442.418,77.979,443.678,77.979z M430.49,42.027c-10.08,0-13.188,14.196-13.188,25.116
		c0,6.721,2.352,10.752,6.131,10.752c2.018,0,3.865-1.092,5.377-2.52l4.535-33.012C432.422,42.195,431.414,42.027,430.49,42.027z"/>
	<path d="M484.25,36.399c1.428,0,2.436,0.504,2.855,0.84l-2.771,14.364c-0.336-0.42-1.932-1.429-4.621-1.429
		c-3.275,0-6.551,0.672-8.23,2.101l-4.369,31.836h-12.936l5.293-39.564l-4.369-2.352l0.672-3.612l13.439-2.184l2.186,1.428
		l-0.42,7.728l-0.168,3.024C472.658,42.195,477.613,36.399,484.25,36.399z"/>
	<path d="M529.271,77.979c0.756,0,1.764-0.336,3.781-1.848l1.176,2.855c-1.008,1.177-4.789,5.965-11.424,5.965
		c-4.537,0-6.553-2.184-7.057-6.133l-0.084-0.756c-2.268,3.191-6.721,6.889-13.607,6.889c-10.164,0-14.113-7.896-14.113-17.305
		c0-15.875,8.904-31.248,27.805-31.248c1.26,0,2.855,0.168,4.283,0.42l1.934-13.524l-6.385-1.764l0.756-3.36l17.557-1.764
		l2.184,1.176l-8.232,57.204C527.508,76.803,527.928,77.979,529.271,77.979z M514.74,42.027c-10.08,0-12.936,14.196-12.936,25.116
		c0,6.721,2.184,10.752,5.879,10.752c2.941,0,5.377-2.1,6.889-4.367l4.535-30.744C517.848,42.363,516.336,42.027,514.74,42.027z"/>
</g>
</svg>
